<svg xmlns="http://www.w3.org/2000/svg" viewBox="0 0 720 540" width="720" height="540" role="img">
<defs>
<radialGradient id="field" cx="32%" cy="26%" r="95%">
  <stop offset="0%" stop-color="#21324e"/><stop offset="55%" stop-color="#182741"/><stop offset="100%" stop-color="#0f1a2e"/>
</radialGradient>
<linearGradient id="acc" x1="0" y1="0" x2="1" y2="1">
  <stop offset="0%" stop-color="#b7da4c"/><stop offset="100%" stop-color="#dbfc52"/>
</linearGradient>
<linearGradient id="accfade" x1="0" y1="0" x2="0" y2="1">
  <stop offset="0%" stop-color="#b7da4c" stop-opacity="0.28"/><stop offset="100%" stop-color="#b7da4c" stop-opacity="0"/>
</linearGradient>
<pattern id="grid" width="30" height="30" patternUnits="userSpaceOnUse">
  <circle cx="1" cy="1" r="1" fill="#ffffff" fill-opacity="0.05"/>
</pattern>
<filter id="glow" x="-80%" y="-80%" width="260%" height="260%">
  <feGaussianBlur stdDeviation="6" result="b"/><feMerge><feMergeNode in="b"/><feMergeNode in="SourceGraphic"/></feMerge>
</filter>
<radialGradient id="vig" cx="50%" cy="42%" r="75%">
  <stop offset="60%" stop-color="#000" stop-opacity="0"/><stop offset="100%" stop-color="#000" stop-opacity="0.34"/>
</radialGradient>
<clipPath id="sh"><path d="M360,108 L522,168 L522,300 Q522,404 360,452 Q198,404 198,300 L198,168 Z"/></clipPath>
</defs>
<rect width="720" height="540" fill="url(#field)"/>
<rect width="720" height="540" fill="url(#grid)"/><path d="M360,108 L522,168 L522,300 Q522,404 360,452 Q198,404 198,300 L198,168 Z" fill="url(#accfade)" stroke="none" clip-path="url(#sh)"/><g clip-path="url(#sh)" stroke="#aebbcd" stroke-opacity="0.22" stroke-width="1.2" fill="none"><line x1="210" y1="90" x2="210" y2="470"/><line x1="240" y1="90" x2="240" y2="470"/><line x1="270" y1="90" x2="270" y2="470"/><line x1="300" y1="90" x2="300" y2="470"/><line x1="330" y1="90" x2="330" y2="470"/><line x1="360" y1="90" x2="360" y2="470"/><line x1="390" y1="90" x2="390" y2="470"/><line x1="420" y1="90" x2="420" y2="470"/><line x1="450" y1="90" x2="450" y2="470"/><line x1="480" y1="90" x2="480" y2="470"/><line x1="510" y1="90" x2="510" y2="470"/><line x1="198" y1="120" x2="522" y2="120"/><line x1="198" y1="150" x2="522" y2="150"/><line x1="198" y1="180" x2="522" y2="180"/><line x1="198" y1="210" x2="522" y2="210"/><line x1="198" y1="240" x2="522" y2="240"/><line x1="198" y1="270" x2="522" y2="270"/><line x1="198" y1="300" x2="522" y2="300"/><line x1="198" y1="330" x2="522" y2="330"/><line x1="198" y1="360" x2="522" y2="360"/><line x1="198" y1="390" x2="522" y2="390"/><line x1="198" y1="420" x2="522" y2="420"/><line x1="198" y1="450" x2="522" y2="450"/></g><path d="M360,108 L522,168 L522,300 Q522,404 360,452 Q198,404 198,300 L198,168 Z" fill="none" stroke="url(#acc)" stroke-width="2.4" filter="url(#glow)"/><polyline points="318,282 350,318 418,242" fill="none" stroke="url(#acc)" stroke-width="8" stroke-linecap="round" stroke-linejoin="round" filter="url(#glow)"/><rect width="720" height="540" fill="url(#vig)"/></svg>