<svg xmlns="http://www.w3.org/2000/svg" viewBox="0 0 720 540" width="720" height="540" role="img">
<defs>
<radialGradient id="field" cx="32%" cy="26%" r="95%"><stop offset="0%" stop-color="#21324e"/><stop offset="55%" stop-color="#182741"/><stop offset="100%" stop-color="#0f1a2e"/></radialGradient>
<linearGradient id="acc" x1="0" y1="0" x2="1" y2="1"><stop offset="0%" stop-color="#b7da4c"/><stop offset="100%" stop-color="#dbfc52"/></linearGradient>
<linearGradient id="accfade" x1="0" y1="0" x2="0" y2="1"><stop offset="0%" stop-color="#b7da4c" stop-opacity="0.28"/><stop offset="100%" stop-color="#b7da4c" stop-opacity="0"/></linearGradient>
<pattern id="grid" width="30" height="30" patternUnits="userSpaceOnUse"><circle cx="1" cy="1" r="1" fill="#ffffff" fill-opacity="0.05"/></pattern>
<filter id="glow" x="-80%" y="-80%" width="260%" height="260%"><feGaussianBlur stdDeviation="6" result="b"/><feMerge><feMergeNode in="b"/><feMergeNode in="SourceGraphic"/></feMerge></filter>
<radialGradient id="vig" cx="50%" cy="42%" r="75%"><stop offset="60%" stop-color="#000" stop-opacity="0"/><stop offset="100%" stop-color="#000" stop-opacity="0.34"/></radialGradient>

</defs>
<rect width="720" height="540" fill="url(#field)"/><rect width="720" height="540" fill="url(#grid)"/><g fill="none" stroke="#aebbcd" stroke-opacity="0.3" stroke-width="1.2" stroke-linecap="round" stroke-linejoin="round"><path d="M360,270 Q280.0,215.0 160,160"/><path d="M360,270 Q480.0,215.0 560,160"/><path d="M360,270 Q240.0,325.0 160,380"/><path d="M360,270 Q440.0,325.0 560,380"/><path d="M360,270 Q380.0,195.0 360,120"/><path d="M360,270 Q340.0,350.0 360,430"/></g><g fill="none" stroke="#aebbcd" stroke-opacity="0.4" stroke-width="1.3" stroke-linecap="round" stroke-linejoin="round"><circle cx="360" cy="270" r="54"/><circle cx="360" cy="270" r="82" stroke-dasharray="2 9"/></g><g fill="none" stroke="#aebbcd" stroke-opacity="0.5" stroke-width="1.4" stroke-linecap="round" stroke-linejoin="round"><rect x="136" y="142" width="48" height="36" rx="5"/><line x1="136" y1="154" x2="184" y2="154"/><rect x="536" y="142" width="48" height="36" rx="5"/><line x1="536" y1="154" x2="584" y2="154"/><rect x="136" y="362" width="48" height="36" rx="5"/><line x1="136" y1="374" x2="184" y2="374"/><rect x="536" y="362" width="48" height="36" rx="5"/><line x1="536" y1="374" x2="584" y2="374"/><rect x="336" y="102" width="48" height="36" rx="5"/><line x1="336" y1="114" x2="384" y2="114"/><rect x="336" y="412" width="48" height="36" rx="5"/><line x1="336" y1="424" x2="384" y2="424"/></g><g fill="none" stroke="url(#acc)" stroke-width="2.6" stroke-linecap="round" stroke-linejoin="round" filter="url(#glow)"><rect x="330" y="240" width="60" height="60" rx="9"/></g><circle cx="360" cy="270" r="11" fill="#b7da4c" fill-opacity="0.16"/><circle cx="360" cy="270" r="6" fill="url(#acc)" filter="url(#glow)"/><rect width="720" height="540" fill="url(#vig)"/></svg>