<svg xmlns="http://www.w3.org/2000/svg" viewBox="0 0 720 540" width="720" height="540" role="img"><defs>
<radialGradient id="field" cx="32%" cy="26%" r="95%"><stop offset="0%" stop-color="#21324e"/><stop offset="55%" stop-color="#182741"/><stop offset="100%" stop-color="#0f1a2e"/></radialGradient>
<linearGradient id="acc" x1="0" y1="0" x2="1" y2="1"><stop offset="0%" stop-color="#b7da4c"/><stop offset="100%" stop-color="#dbfc52"/></linearGradient>
<pattern id="grid" width="30" height="30" patternUnits="userSpaceOnUse"><circle cx="1" cy="1" r="1" fill="#ffffff" fill-opacity="0.05"/></pattern>
<filter id="glow" x="-80%" y="-80%" width="260%" height="260%"><feGaussianBlur stdDeviation="6" result="b"/><feMerge><feMergeNode in="b"/><feMergeNode in="SourceGraphic"/></feMerge></filter>
<radialGradient id="vig" cx="50%" cy="42%" r="75%"><stop offset="60%" stop-color="#000" stop-opacity="0"/><stop offset="100%" stop-color="#000" stop-opacity="0.34"/></radialGradient>
</defs>
<rect width="720" height="540" fill="url(#field)"/><rect width="720" height="540" fill="url(#grid)"/><g fill="none" stroke="#aebbcd" stroke-opacity="0.45" stroke-width="1.4" stroke-linecap="round" stroke-linejoin="round"><path d="M90,300 L140,300 L160,250 L180,340 L205,215 L230,320 L255,280 L285,300 L330,300"/><path d="M90,360 L150,360 L172,330 L196,392 L222,348 L250,368 L330,368" stroke-opacity="0.25"/></g><g fill="none" stroke="url(#acc)" stroke-width="2.6" stroke-linecap="round" stroke-linejoin="round" filter="url(#glow)"><path d="M330,300 L372,300 L392,238 L414,352 L438,206 L462,318 L486,272 L512,300 L556,300"/></g><g fill="none" stroke="#aebbcd" stroke-opacity="0.45" stroke-width="1.4" stroke-linecap="round" stroke-linejoin="round"><ellipse cx="612" cy="228" rx="52" ry="17"/><path d="M560,228 L560,312"/><path d="M664,228 L664,312"/><ellipse cx="612" cy="312" rx="52" ry="17"/><ellipse cx="612" cy="270" rx="52" ry="17" stroke-opacity="0.28"/></g><circle cx="556" cy="300" r="6" fill="url(#acc)" filter="url(#glow)"/><rect width="720" height="540" fill="url(#vig)"/></svg>