<svg xmlns="http://www.w3.org/2000/svg" viewBox="1608 242 1696 702"><path d="M1804.628359375 496.73681640625 1823.83001953125 488.94873046875H1831.7523828125V629.0H1804.628359375ZM1802.479921875 438.86328125Q1802.479921875 435.640625 1803.68841796875 432.82080078125Q1804.8969140625 430.0009765625 1807.0453515625 427.8525390625Q1809.1937890625 425.7041015625 1812.01361328125 424.49560546875Q1814.8334375 423.287109375 1818.05609375 423.287109375Q1821.27875 423.287109375 1824.09857421875 424.49560546875Q1826.9183984375 425.7041015625 1829.0668359375 427.8525390625Q1831.2152734375 430.0009765625 1832.42376953125 432.82080078125Q1833.632265625 435.640625 1833.632265625 438.86328125Q1833.632265625 442.0859375 1832.42376953125 444.90576171875Q1831.2152734375 447.7255859375 1829.0668359375 449.8740234375Q1826.9183984375 452.0224609375 1824.09857421875 453.23095703125Q1821.27875 454.439453125 1818.05609375 454.439453125Q1814.8334375 454.439453125 1812.01361328125 453.23095703125Q1809.1937890625 452.0224609375 1807.0453515625 449.8740234375Q1804.8969140625 447.7255859375 1803.68841796875 444.90576171875Q1802.479921875 442.0859375 1802.479921875 438.86328125Z" fill="#16233A"/><path d="M1910.469296875 460.9384765625H1919.815V494.29296875Q1934.8003515625 477.53515625 1950.9136328125 469.23681640625Q1967.0269140625 460.9384765625 1983.62359375 460.9384765625Q1992.324765625 460.9384765625 1999.81744140625 464.8056640625Q2007.3101171875 468.6728515625 2012.949765625 475.4404296875Q2018.5894140625 482.2080078125 2021.8120703125 491.31201171875Q2025.0347265625 500.416015625 2025.0347265625 510.728515625V629.0H1992.324765625V516.3681640625Q1992.324765625 508.150390625 1990.391171875 501.94677734375Q1988.457578125 495.7431640625 1984.91265625 491.5537109375Q1981.367734375 487.3642578125 1976.61431640625 485.18896484375Q1971.8608984375 483.013671875 1966.0601171875 483.013671875Q1960.9038671875 483.013671875 1955.1030859375 484.7861328125Q1949.3023046875 486.55859375 1943.25982421875 489.70068359375Q1937.21734375 492.8427734375 1931.2554296875 497.193359375Q1925.293515625 501.5439453125 1919.815 506.861328125V629.0H1886.94390625V470.123046875ZM2090.293515625 464.0 2148.62359375 588.8779296875 2204.5366796875 464.0H2219.3608984375L2145.078671875 630.7724609375H2133.799375L2055.9722265625 464.0ZM2320.7134375 632.544921875Q2303.955625 632.544921875 2289.21197265625 626.2607421875Q2274.4683203125 619.9765625 2263.5112890625 609.1806640625Q2252.5542578125 598.384765625 2246.18951171875 583.80224609375Q2239.824765625 569.2197265625 2239.824765625 552.7841796875Q2239.824765625 532.96484375 2245.625546875 516.12646484375Q2251.426328125 499.2880859375 2262.06109375 487.0419921875Q2272.695859375 474.7958984375 2287.60064453125 467.8671875Q2302.5054296875 460.9384765625 2320.8745703125 460.9384765625Q2336.9878515625 460.9384765625 2350.5230078125 466.65869140625Q2364.0581640625 472.37890625 2373.80669921875 481.96630859375Q2383.555234375 491.5537109375 2388.95318359375 504.1220703125Q2394.3511328125 516.6904296875 2394.3511328125 530.38671875H2271.406796875Q2271.406796875 546.9833984375 2275.67681640625 561.1630859375Q2279.9468359375 575.3427734375 2287.6812109375 585.6552734375Q2295.4155859375 595.9677734375 2306.0503515625 601.7685546875Q2316.6851171875 607.5693359375 2329.414609375 607.5693359375Q2340.049375 607.5693359375 2349.8784765625 604.10498046875Q2359.707578125 600.640625 2367.68365234375 595.0009765625Q2375.6597265625 589.361328125 2381.299375 582.1103515625Q2386.9390234375 574.859375 2389.1948828125 567.125L2398.70171875 571.314453125Q2395.156796875 584.0439453125 2387.2612890625 595.162109375Q2379.36578125 606.2802734375 2368.81158203125 614.57861328125Q2358.2573828125 622.876953125 2345.85015625 627.7109375Q2333.4429296875 632.544921875 2320.7134375 632.544921875ZM2353.262265625 517.173828125Q2353.262265625 507.828125 2349.95904296875 499.771484375Q2346.6558203125 491.71484375 2340.8550390625 485.83349609375Q2335.0542578125 479.9521484375 2327.3198828125 476.568359375Q2319.5855078125 473.1845703125 2310.723203125 473.1845703125Q2303.31109375 473.1845703125 2296.543515625 476.48779296875Q2289.7759375 479.791015625 2284.4585546875 485.67236328125Q2279.141171875 491.5537109375 2275.67681640625 499.6103515625Q2272.2124609375 507.6669921875 2271.5679296875 517.0126953125ZM2515.039609375 632.544921875Q2498.281796875 632.544921875 2483.53814453125 626.2607421875Q2468.7944921875 619.9765625 2457.8374609375 609.1806640625Q2446.8804296875 598.384765625 2440.51568359375 583.80224609375Q2434.1509375 569.2197265625 2434.1509375 552.7841796875Q2434.1509375 532.96484375 2439.95171875 516.12646484375Q2445.7525 499.2880859375 2456.387265625 487.0419921875Q2467.02203125 474.7958984375 2481.92681640625 467.8671875Q2496.8316015625 460.9384765625 2515.2007421875 460.9384765625Q2531.3140234375 460.9384765625 2544.8491796875 466.65869140625Q2558.3843359375 472.37890625 2568.13287109375 481.96630859375Q2577.88140625 491.5537109375 2583.27935546875 504.1220703125Q2588.6773046875 516.6904296875 2588.6773046875 530.38671875H2465.73296875Q2465.73296875 546.9833984375 2470.00298828125 561.1630859375Q2474.2730078125 575.3427734375 2482.0073828125 585.6552734375Q2489.7417578125 595.9677734375 2500.3765234375 601.7685546875Q2511.0112890625 607.5693359375 2523.74078125 607.5693359375Q2534.375546875 607.5693359375 2544.2046484375 604.10498046875Q2554.03375 600.640625 2562.00982421875 595.0009765625Q2569.9858984375 589.361328125 2575.625546875 582.1103515625Q2581.2651953125 574.859375 2583.5210546875 567.125L2593.027890625 571.314453125Q2589.48296875 584.0439453125 2581.5874609375 595.162109375Q2573.691953125 606.2802734375 2563.13775390625 614.57861328125Q2552.5835546875 622.876953125 2540.176328125 627.7109375Q2527.7691015625 632.544921875 2515.039609375 632.544921875ZM2547.5884375 517.173828125Q2547.5884375 507.828125 2544.28521484375 499.771484375Q2540.9819921875 491.71484375 2535.1812109375 485.83349609375Q2529.3804296875 479.9521484375 2521.6460546875 476.568359375Q2513.9116796875 473.1845703125 2505.049375 473.1845703125Q2497.637265625 473.1845703125 2490.8696875 476.48779296875Q2484.102109375 479.791015625 2478.7847265625 485.67236328125Q2473.46734375 491.5537109375 2470.00298828125 499.6103515625Q2466.5386328125 507.6669921875 2465.8941015625 517.0126953125ZM2663.1206640625 460.9384765625H2672.4663671875V494.29296875Q2687.45171875 477.53515625 2703.565 469.23681640625Q2719.67828125 460.9384765625 2736.2749609375 460.9384765625Q2744.9761328125 460.9384765625 2752.46880859375 464.8056640625Q2759.961484375 468.6728515625 2765.6011328125 475.4404296875Q2771.24078125 482.2080078125 2774.4634375 491.31201171875Q2777.68609375 500.416015625 2777.68609375 510.728515625V629.0H2744.9761328125V516.3681640625Q2744.9761328125 508.150390625 2743.0425390625 501.94677734375Q2741.1089453125 495.7431640625 2737.5640234375 491.5537109375Q2734.0191015625 487.3642578125 2729.26568359375 485.18896484375Q2724.512265625 483.013671875 2718.711484375 483.013671875Q2713.555234375 483.013671875 2707.754453125 484.7861328125Q2701.953671875 486.55859375 2695.91119140625 489.70068359375Q2689.8687109375 492.8427734375 2683.906796875 497.193359375Q2677.9448828125 501.5439453125 2672.4663671875 506.861328125V629.0H2639.5952734375V470.123046875ZM2870.3374609375 407.92578125H2879.6831640625V464.0H2916.4214453125V478.0185546875H2879.6831640625V594.1953125Q2879.6831640625 597.9013671875 2881.05279296875 601.1240234375Q2882.422421875 604.3466796875 2884.75884765625 606.763671875Q2887.0952734375 609.1806640625 2890.3179296875 610.55029296875Q2893.5405859375 611.919921875 2897.4077734375 611.919921875Q2902.8862890625 611.919921875 2907.3980078125 609.1806640625Q2911.9097265625 606.44140625 2915.293515625 602.4130859375L2923.5112890625 607.8916015625Q2916.7437109375 619.33203125 2905.9478125 625.9384765625Q2895.1519140625 632.544921875 2879.199765625 632.544921875Q2870.9819921875 632.544921875 2864.8589453125 629.72509765625Q2858.7358984375 626.9052734375 2854.78814453125 621.82958984375Q2850.840390625 616.75390625 2848.906796875 609.74462890625Q2846.973203125 602.7353515625 2846.973203125 594.1953125V478.0185546875H2818.2915625V471.8955078125L2846.973203125 464.0V417.1103515625ZM3069.336484375 629.0Q3062.891171875 625.77734375 3058.46001953125 619.89599609375Q3054.0288671875 614.0146484375 3054.0288671875 606.44140625Q3048.2280859375 610.7919921875 3042.66900390625 615.46484375Q3037.109921875 620.1376953125 3030.58404296875 623.92431640625Q3024.0581640625 627.7109375 3016.08208984375 630.1279296875Q3008.106015625 632.544921875 2997.6323828125 632.544921875Q2987.9644140625 632.544921875 2980.14947265625 629.40283203125Q2972.33453125 626.2607421875 2966.93658203125 620.7822265625Q2961.5386328125 615.3037109375 2958.55767578125 607.73046875Q2955.57671875 600.1572265625 2955.57671875 591.4560546875Q2955.57671875 580.8212890625 2959.766171875 572.28125Q2963.955625 563.7412109375 2971.28716796875 557.05419921875Q2978.6187109375 550.3671875 2988.2866796875 545.13037109375Q2997.9546484375 539.8935546875 3008.9116796875 535.78466796875Q3019.8687109375 531.67578125 3031.4702734375 528.453125Q3043.0718359375 525.23046875 3054.0288671875 522.4912109375V512.1787109375Q3054.0288671875 500.8994140625 3052.4175390625 493.1650390625Q3050.8062109375 485.4306640625 3047.422421875 480.67724609375Q3044.0386328125 475.923828125 3038.80181640625 473.90966796875Q3033.565 471.8955078125 3026.3140234375 471.8955078125Q3019.3853125 471.8955078125 3013.58453125 474.634765625Q3007.78375 477.3740234375 3003.35259765625 481.96630859375Q2998.9214453125 486.55859375 2996.10162109375 492.76220703125Q2993.281796875 498.9658203125 2992.315 505.89453125H2962.344296875Q2963.633359375 495.259765625 2969.67583984375 486.880859375Q2975.7183203125 478.501953125 2984.902890625 472.78173828125Q2994.0874609375 467.0615234375 3005.76958984375 464.0Q3017.45171875 460.9384765625 3030.020078125 460.9384765625Q3046.133359375 460.9384765625 3057.090390625 464.08056640625Q3068.047421875 467.22265625 3074.6538671875 472.8623046875Q3081.2603125 478.501953125 3084.08013671875 486.63916015625Q3086.8999609375 494.7763671875 3086.8999609375 504.60546875V606.44140625Q3086.8999609375 614.0146484375 3091.33111328125 619.89599609375Q3095.762265625 625.77734375 3102.207578125 629.0ZM3054.0288671875 532.96484375Q3046.9390234375 535.220703125 3039.36578125 538.12109375Q3031.7925390625 541.021484375 3024.5415625 544.64697265625Q3017.2905859375 548.2724609375 3010.684140625 552.4619140625Q3004.0776953125 556.6513671875 2999.082578125 561.4853515625Q2994.0874609375 566.3193359375 2991.1870703125 571.63671875Q2988.2866796875 576.9541015625 2988.2866796875 582.7548828125Q2988.2866796875 588.8779296875 2990.5425390625 594.27587890625Q2992.7983984375 599.673828125 2996.504453125 603.78271484375Q3000.2105078125 607.8916015625 3005.0444921875 610.22802734375Q3009.8784765625 612.564453125 3015.0347265625 612.564453125Q3020.5132421875 612.564453125 3025.508359375 611.1142578125Q3030.5034765625 609.6640625 3035.176328125 607.16650390625Q3039.8491796875 604.6689453125 3044.52203125 601.4462890625Q3049.1948828125 598.2236328125 3054.0288671875 594.517578125Z" fill="#16233A"/><path d="M1799 438.5C1799 427.73 1807.73 419 1818.5 419 1829.27 419 1838 427.73 1838 438.5 1838 449.269 1829.27 458 1818.5 458 1807.73 458 1799 449.269 1799 438.5Z" fill="#B7D94C"/><text fill="#555B65" font-family="Montserrat,sans-serif" font-weight="400" font-size="46" letter-spacing="0" transform="matrix(1 0 0 1 1793.18 723)">engineering intelligent business</text></svg>